<?xml version="1.0" encoding="UTF-8" standalone="no"?>
<svg xmlns:rdf="http://www.w3.org/1999/02/22-rdf-syntax-ns#" xmlns="http://www.w3.org/2000/svg" height="61.979" width="44.536" version="1.1" xmlns:cc="http://creativecommons.org/ns#" xmlns:dc="http://purl.org/dc/elements/1.1/" viewBox="0 0 44.536 61.979"><rect width="44.536" height="61.979" fill="#dae025"/><path d="M9.3546,16.57849c.457-1.45795,1.172-2.654,2.135-2.761,1.845-.206,3.998,2.892,4.375,6.532.348,3.366-.439,7.051-2.284,7.258-1.126.125-2.169-.335-2.974-2.082a5.90735,5.90735,0,0,0,2.824-.157,23.1159,23.1159,0,0,0,.557-5.162,15.12836,15.12836,0,0,0-2.413-4.453,9.6545,9.6545,0,0,0-2.22.825" fill="#12233f"/><path d="M10.83369,23.65271c-.728.08905-1.453-.994-1.624-2.415-.173-1.421.279-2.642,1.004-2.729.726-.087,1.454.993,1.624,2.414.17,1.422-.279,2.643-1.004,2.73" fill="#12233f"/><path d="M27.4059,16.6698a2.38035,2.38035,0,1,1-2.641-2.13495,2.40073,2.40073,0,0,1,2.641,2.13495" fill="#12233f"/><path d="M31.7502,16.19128a7.16193,7.16193,0,0,0-7.739-6.52,7.16079,7.16079,0,0,0-6.061,8.103,7.28571,7.28571,0,0,0,6.167,6.513s-.059-.697-.144-1.39c-.078-.689-.173-1.369-.173-1.369l-.826.087a15.09522,15.09522,0,0,1-1.694-1.963,13.0177,13.0177,0,0,1-1.179-2.126s.351-1.246.813-2.396c.475-1.167,1.058-2.237,1.058-2.237a22.1751,22.1751,0,0,1,2.258-.395c1.227-.14,2.494-.15,2.494-.15a15.82426,15.82426,0,0,1,1.57,1.857,18.79,18.79,0,0,1,1.309,2.234,10.90557,10.90557,0,0,1-.623,2.292,15.23634,15.23634,0,0,1-1.254,2.34l-.744.122s.101.656.15,1.329c.055.70795.088,1.408.088,1.408a7.2851,7.2851,0,0,0,4.53-7.739" fill="#12233f"/><path d="M30.3615,10.14679c-1.755-1.579-3.204-2.816-3.185-2.89294a5.02687,5.02687,0,0,1,1.125.504,12.61967,12.61967,0,0,1,2.543,1.757,11.53967,11.53967,0,0,1,2.739,3.399,33.687,33.687,0,0,1-3.222-2.767" fill="#12233f"/><path d="M17.7799,6.98474a13.76706,13.76706,0,0,0-2.483,1.176,13.748,13.748,0,0,0,4.682-1.738,12.64248,12.64248,0,0,0-2.199.562" fill="#12233f"/><path d="M24.20229,6.56769a5.15961,5.15961,0,0,0-2.809-.306,2.579,2.579,0,0,1,.86.289l-3.412,1.534-4.081,1.069a.89386.89386,0,0,1-.512-.282c-1.058.808-1.732,1.534-1.713,1.708.038.348,2.821-.296,6.042-1.405,3.225-1.10706,5.741-2.275,5.625-2.60706" fill="#12233f"/><path d="M33.3766,20.9173c.421-2.99194,1.027-5.438,1.322-5.337a10.78277,10.78277,0,0,1,.529,5.679c-.362,2.508-1.549,5.181-2.052,5.151-.31-.019-.217-2.504.201-5.493" fill="#12233f"/><path d="M19.9508,32.18494c-1.5-.306-2.253-.89294-2.46-1.70795-.462-1.798,2.46-3.459,6.077-4.011,3.306-.505,6.149.556,6.448,1.785.232.955-.212,1.724-1.477,2.559a6.28076,6.28076,0,0,0,.057-2.068,36.7208,36.7208,0,0,0-4.773-.769,18.82014,18.82014,0,0,0-4.512,2.258,5.33831,5.33831,0,0,0,.64,1.954" fill="#12233f"/><path d="M26.8097,30.61169c.106.639-.955,1.342-2.37,1.56805-1.417.227-2.643-.108-2.744-.75-.106-.64.958-1.344,2.372-1.569,1.41-.226,2.641.11,2.742.751" fill="#12233f"/><path d="M31.19278,53.9278s-4.195.075-6.252-2.278c-.005-.005-.008-.012-.013-.015l-.008-.011-.01-.005a3.57738,3.57738,0,0,0-1.681-1.029.1831.1831,0,0,0-.046-.011c-.026-.008-.052-.014-.075-.019-.041-.011-.077-.021-.116-.029l-.013-.003a3.76877,3.76877,0,0,0-.529-.066c-.062-.004-.122-.004-.186-.004s-.129,0-.193.004l-.062.006c-.044.002-.08.005-.124.009-.026.005-.049.007-.075.01-.039.004-.075.011-.108.016-.032.003-.058.009-.081.013-.036.006-.069.012-.103.019a.76745.76745,0,0,1-.083.01794c-.033.009-.064.018-.098.026-.026.008-.054.015-.082.022l-.091.028c-.028.008-.056.02-.082.026-.028.013-.06.02295-.088.034-.028.01-.057.022-.08.03-.031.012-.059.026-.09.039-.026.011-.049.022-.078.035-.028.013-.059.027-.085.04-.023.013-.052.025-.078.039-.028.014-.051.029-.079.045a.67037.67037,0,0,0-.078.045c-.026.013-.049.03-.078.048-.025.014-.048.03-.074.044a.62052.62052,0,0,1-.075.053c-.023.018-.046.035-.067.051a.6618.6618,0,0,0-.075.054c-.026.02-.046.037-.07.056a.89645.89645,0,0,0-.069.059.49371.49371,0,0,0-.065.057c-.026.021-.047.041-.069.062-.019.021-.04.037-.06.057-.023.024-.046.048-.067.072-.018.017-.034.033-.049.048l-.003.003c-.054.059-.1.118-.15.179-.508.545-2.32,2.153-6.123,2.153h-6.311v.237h6.311s4.187-.074,6.25,2.274a.21827.21827,0,0,0,.018.022c0,.004.005.007.008.00995l.005.004a3.59278,3.59278,0,0,0,1.686,1.029.187.187,0,0,0,.046.013c.023.008.052.015.075.021.039.008.075.018.114.024l.012.004a3.39572,3.39572,0,0,0,.532.066c.062.004.124.005.186.005.064,0,.126-.001.188-.005a.39306.39306,0,0,0,.062-.005c.044-.003.085-.005.127-.009.026-.004.052-.007.075-.01.039-.006.077-.008.111-.015.028-.005.054-.009.08-.015.033-.006.067-.01.103-.02.026-.003.054-.012.078-.016.036-.009.067-.017.1-.026a.56119.56119,0,0,0,.077-.022c.034-.01.065-.018.101-.028.023-.01.052-.01605.078-.02905.03-.00995.062-.019.095-.032.023-.011.049-.019.075-.03.031-.013.062-.023.09-.037.024-.012.049-.02295.075-.03595.028-.015.06-.02905.088-.04205a.80492.80492,0,0,0,.072-.037.73828.73828,0,0,0,.088-.048c.023-.013.049-.026.07-.04.028-.016.057-.035.085-.052.02-.014.044-.028.067-.04395.029-.018.055-.036.08-.054.023-.014.044-.031.065-.046.028-.019.054-.04.082-.061a.47836.47836,0,0,0,.059-.05c.024-.02106.052-.04205.081-.064a.36966.36966,0,0,1,.057-.048c.023-.026.049-.049.077-.075.018-.017.034-.032.049-.049.028-.027.057-.057.083-.081a.29012.29012,0,0,1,.038-.04v-.003c.052-.058.106-.118.153-.178.508-.546,2.32-2.154,6.12-2.154h6.311v-.238Zm-8.929,3.409a3.27448,3.27448,0,1,1,3.271-3.27594,3.27439,3.27439,0,0,1-3.271,3.27594" fill="#12233f"/><path d="M20.1188,52.00232c.111-.088.935.452,1.758,1.225a2.09665,2.09665,0,0,0,.513-.438c.478-.504.468-.888.604-.853.026.005.07.02.078.052a1.848,1.848,0,0,1-.181,1.047,6.21465,6.21465,0,0,1-.395.783,4.08039,4.08039,0,0,1,.703,1.543,1.72875,1.72875,0,0,1-.096,1.011.109.109,0,0,1-.083.05695c-.106,0-.041-.311-.374-.926a3.72042,3.72042,0,0,0-.364-.578c-.369-.467-.367-.428-.367-.428s-.335.428-.673.78595c-.114.117-.222.208-.318.293-.123.11-.227.19-.325.165a.08433.08433,0,0,1-.052-.093,3.38507,3.38507,0,0,0,.581-1.686,3.2105,3.2105,0,0,0-.839-1.65c-.136-.16705-.26-.236-.17-.31006" fill="#12233f" fill-rule="evenodd"/><path d="M23.4489,55.8241a.497.497,0,1,1,.496.496.494.494,0,0,1-.496-.496" fill="#12233f" fill-rule="evenodd"/><path d="M21.5617,52.534a.4585.4585,0,1,1,.457.457.45641.45641,0,0,1-.457-.457" fill="#12233f" fill-rule="evenodd"/><polygon points="7.024 41.56 7.024 36.871 8.245 36.871 8.245 40.496 9.729 40.496 9.729 41.56 7.024 41.56" fill="#12233f"/><rect x="11.70399" y="36.87103" width="1.223" height="4.68903" fill="#12233f"/><path d="M17.3825,36.701a2.2792,2.2792,0,0,1,2.117,1.176l-.981.538a1.28578,1.28578,0,0,0-1.149-.648c-.802,0-1.164.652-1.164,1.505,0,.795.366,1.431,1.273,1.431a1.043,1.043,0,0,0,1.04-.832h-1.074v-.98h2.346v.257a2.27078,2.27078,0,0,1-2.398,2.583,2.40162,2.40162,0,0,1-2.447-2.507,2.44216,2.44216,0,0,1,2.437-2.523" fill="#12233f"/><path d="M22.9919,36.8714v2.877a.75947.75947,0,0,0,.844.844.75044.75044,0,0,0,.834-.782v-2.939h1.236v3c0,1.071-.73,1.82306-2.096,1.82306-1.032,0-2.042-.538-2.042-1.689v-3.134Z" fill="#12233f"/><polygon points="28.175 36.871 30.891 36.871 30.891 37.936 29.399 37.936 29.399 38.696 30.805 38.696 30.805 39.735 29.399 39.735 29.399 40.518 30.917 40.518 30.917 41.56 28.175 41.56 28.175 36.871" fill="#12233f"/><polygon points="35.589 36.871 37.489 36.871 37.489 41.56 36.262 41.56 36.262 37.876 35.589 37.876 35.589 36.871" fill="#12233f"/><path d="M10.54679,44.83636a1.69049,1.69049,0,0,0-1.84,1.72894,1.63877,1.63877,0,0,0,1.802,1.73,1.69458,1.69458,0,0,0,1.866-1.744,1.64554,1.64554,0,0,0-1.828-1.715m.008,2.85394c-.542,0-.896-.435-.896-1.105,0-.705.346-1.144.904-1.144.526,0,.857.424.857,1.104,0,.694-.341,1.145-.865,1.145" fill="#ec1c24"/><path d="M25.29169,44.86749c-.994,0-1.396.41-1.396,1.415v.078c0,.607-.019,1.276-.039,1.627l-.01.215h.996l-.018-.197c-.018-.308-.023-.601-.023-.89v-.17l.005-.489v-.174c.015-.348.134-.763.617-.763a1.39577,1.39577,0,0,1,.465.082l.049.03.1-.655-.034-.008a2.88457,2.88457,0,0,0-.712-.101" fill="#ec1c24"/><path d="M19.112,45.5116l.093-.644h-1.03v-.221c.02-.476.214-.719.578-.719a1.91536,1.91536,0,0,1,.643.084l.044.013.09-.641-.031-.011a3.9141,3.9141,0,0,0-.875-.116,1.28035,1.28035,0,0,0-1.373,1.387l-.003.608.01,1.169-.018,1.441-.015.871v.199h.966v-.204l-.024-.84595-.008-.93005v-.751s.008-.54.008-.689Z" fill="#ec1c24"/><path d="M21.27239,44.83636a1.69454,1.69454,0,0,0-1.843,1.72894,1.64211,1.64211,0,0,0,1.805,1.73,1.69358,1.69358,0,0,0,1.866-1.744,1.64554,1.64554,0,0,0-1.828-1.715m.008,2.85394c-.542,0-.893-.435-.893-1.105,0-.705.343-1.144.901-1.144.529,0,.859.424.859,1.104,0,.694-.341,1.145-.867,1.145" fill="#ec1c24"/><path d="M16.2624,47.38171v-.55l.008-.551a1.26483,1.26483,0,0,0-1.34-1.411h-.553a1.26252,1.26252,0,0,0-1.339,1.409l-.003.199c0,.866,0,1.071-.039,1.681l-.005.044h.997l-.011-.256-.023-.698-.015-.684v-.08a1.2615,1.2615,0,0,1,.103-.647.72746.72746,0,0,1,1.208,0,1.2616,1.2616,0,0,1,.103.647v.08l-.015.684-.023.698-.008.256h.973l-.013-.229c.003.008-.005-.592-.005-.592" fill="#ec1c24"/><path d="M35.9787,47.37634l.002-.181v-.231l.016-.692a1.22875,1.22875,0,0,0-.496-1.17,1.61558,1.61558,0,0,0-.906-.24,1.63377,1.63377,0,0,0-1.187.431,1.282,1.282,0,0,0-1.02-.423h-.55a1.26424,1.26424,0,0,0-1.342,1.409l-.002.199c0,.866,0,1.07-.039,1.68l-.003.044h.991l-.007-.255-.021-.698-.016-.685v-.08a1.26665,1.26665,0,0,1,.101-.647.73027.73027,0,0,1,1.211,0,1.25586,1.25586,0,0,1,.101.647v.08l-.013.685-.026.698-.008.255h.973l-.01-.228c0,.007-.008-.593-.008-.593v-.549l.008-.61a.91648.91648,0,0,1,.085-.333.67026.67026,0,0,1,.17-.231.64739.64739,0,0,1,.439-.156.60853.60853,0,0,1,.599.409,2.65,2.65,0,0,1,.044.708c0,.521-.007.877-.046,1.373l-.016.165-.003.045h1l-.011-.19-.01-.636" fill="#ec1c24"/><path d="M39.89429,46.08954v-.07a.934.934,0,0,0-.581-1,2.11515,2.11515,0,0,0-.89-.157,4.57329,4.57329,0,0,0-1.281.18195l-.033.01.095.65.049-.02a2.67962,2.67962,0,0,1,1.017-.222c.53,0,.744.191.744.657,0,0-.002.046-.005.079a3.9892,3.9892,0,0,0-1.603.144.93224.93224,0,0,0-.659.874,1.0621,1.0621,0,0,0,.666.95605,2.97231,2.97231,0,0,0,1.353.116c.212-.025.912-.147,1.066-.684a10.46649,10.46649,0,0,0,.062-1.515m-.88.674v.083a1.08541,1.08541,0,0,1-.075.544.41971.41971,0,0,1-.191.178.962.962,0,0,1-.485.102.6886.6886,0,0,1-.475-.172.38221.38221,0,0,1-.031-.468c.126-.194.431-.272,1.045-.272,0,0,.158.00494.212.00494" fill="#ec1c24"/><path d="M29.59448,46.01953a.93452.93452,0,0,0-.58-1,2.12,2.12,0,0,0-.891-.157,4.55007,4.55007,0,0,0-1.28.18195l-.034.01.095.65.05-.02a2.65994,2.65994,0,0,1,1.017-.222c.529,0,.743.191.743.657,0,0-.002.046-.005.079a4.008,4.008,0,0,0-1.606.144.9321.9321,0,0,0-.655.874,1.0621,1.0621,0,0,0,.666.95605,2.9648,2.9648,0,0,0,1.352.116c.212-.025.912-.147,1.066-.684a10.46649,10.46649,0,0,0,.062-1.515Zm-.88.744v.083a1.08543,1.08543,0,0,1-.075.544.41982.41982,0,0,1-.191.178.95976.95976,0,0,1-.485.102.6886.6886,0,0,1-.475-.172.38081.38081,0,0,1-.031-.468c.124-.194.428-.272,1.046-.272,0,0,.157.00494.211.00494" fill="#ec1c24"/><path d="M7.4235,43.96375a3.00264,3.00264,0,0,1,1.327.283l.044.021v-.801l-.013-.00305a4.66352,4.66352,0,0,0-1.518-.18994,2.82886,2.82886,0,0,0-2.034.805,2.50173,2.50173,0,0,0-.627,1.834,2.37,2.37,0,0,0,.696,1.705,2.85784,2.85784,0,0,0,2.094.658,5.28838,5.28838,0,0,0,.922-.109l.044-.00995-.256-.642-.033.006a2.80689,2.80689,0,0,1-.514.068,1.55883,1.55883,0,0,1-1.758-1.699,1.65827,1.65827,0,0,1,1.626-1.926" fill="#ec1c24"/></svg>