<?xml version="1.0" encoding="UTF-8"?>
<svg xmlns="http://www.w3.org/2000/svg" xmlns:xlink="http://www.w3.org/1999/xlink" width="1999pt" height="636pt" viewBox="0 0 1999 636" version="1.1">
<g id="surface1">
<path style=" stroke:none;fill-rule:nonzero;fill:rgb(100%,100%,100%);fill-opacity:1;" d="M 231.445312 265.242188 C 243.460938 248.691406 260.625 235.863281 280.121094 229.59375 C 277.574219 232.464844 274.84375 235.175781 272.351562 238.085938 C 283.878906 236.402344 295.710938 237.957031 306.460938 242.367188 C 307.527344 252.558594 308.757812 262.746094 309.949219 272.9375 C 313.058594 263.054688 312.660156 252.429688 314.339844 242.238281 C 325.164062 237.867188 337.015625 236.511719 348.597656 238.011719 C 345.832031 235.03125 342.867188 232.25 339.796875 229.574219 C 359.238281 235.429688 377.160156 247.96875 388.417969 264.96875 C 385.21875 263.089844 381.929688 261.355469 378.390625 260.234375 C 383.140625 270.300781 386.160156 281.574219 384.820312 292.757812 C 376.421875 298.738281 365.21875 300.328125 357.324219 307.085938 C 367.207031 304.9375 377.144531 303.058594 387.042969 301.015625 C 394.777344 309.6875 399.636719 320.601562 401.824219 331.964844 C 404.007812 328.714844 405.871094 325.246094 407.425781 321.648438 C 407.695312 342.335938 400.359375 362.394531 388.832031 379.378906 C 389.429688 375.476562 389.972656 371.554688 390.421875 367.632812 C 381.859375 375.148438 371.976562 381.292969 360.828125 384.074219 C 353.582031 376.648438 346.84375 368.71875 339.617188 361.273438 C 342.578125 371.375 349.96875 379.558594 353.890625 389.316406 C 347.53125 398.800781 338.929688 406.40625 329.191406 412.296875 C 332.789062 413.003906 336.382812 413.726562 339.90625 414.71875 C 330.382812 416.996094 320.699219 418.675781 310.90625 419.128906 C 300.445312 418.929688 290.183594 416.886719 280.03125 414.574219 C 283.570312 413.796875 287.128906 413.164062 290.707031 412.625 L 289.730469 410.980469 C 280.425781 405.484375 272.351562 397.914062 266.714844 388.664062 C 271.753906 379.46875 277.300781 370.558594 281.980469 361.164062 C 273.761719 367.777344 267.453125 376.414062 260.191406 384.019531 C 248.683594 381.996094 239.558594 374.515625 230.089844 368.410156 C 230.722656 371.953125 231.464844 375.476562 232.222656 379.015625 C 219.992188 362.9375 213.324219 342.664062 213.234375 322.480469 C 215.238281 325.589844 216.957031 328.878906 218.796875 332.09375 C 220.875 320.710938 225.988281 310.140625 233.144531 301.105469 C 243.496094 302.496094 253.523438 305.570312 263.894531 306.832031 C 255.222656 301.105469 245.070312 298.199219 236.035156 293.175781 C 234.265625 281.808594 237.878906 270.425781 242.105469 259.984375 C 238.457031 261.535156 234.949219 263.378906 231.445312 265.242188 M 267.148438 307.503906 C 272.386719 324.757812 278.007812 341.902344 283.84375 358.960938 C 301.585938 358.78125 319.34375 358.925781 337.085938 358.871094 C 342.632812 341.867188 348.074219 324.792969 353.765625 307.828125 C 339.617188 296.988281 324.835938 286.976562 310.65625 276.191406 C 295.875 286.234375 281.710938 297.148438 267.148438 307.503906 Z M 267.148438 307.503906 "/>
<path style=" stroke:none;fill-rule:nonzero;fill:rgb(100%,100%,100%);fill-opacity:1;" d="M 1596.148438 272.105469 C 1613.691406 269.324219 1633.617188 273.644531 1645.363281 287.824219 C 1663.015625 309.453125 1662.507812 344.847656 1642.128906 364.597656 C 1623.953125 383.191406 1589.640625 384.980469 1571.71875 365.105469 C 1557.121094 349.402344 1554.824219 325.460938 1560.625 305.515625 C 1565.285156 289.054688 1578.875 274.851562 1596.148438 272.105469 Z M 1596.148438 272.105469 "/>
<path style=" stroke:none;fill-rule:nonzero;fill:rgb(100%,100%,100%);fill-opacity:1;" d="M 1023.511719 277.472656 C 1040.042969 273.695312 1058.527344 277.582031 1071.355469 288.910156 C 1094.988281 309.164062 1096.792969 349.871094 1074.425781 371.734375 C 1055.707031 391.105469 1021.34375 394.390625 1000.910156 375.871094 C 981.359375 357.839844 976.824219 325.949219 989.398438 302.730469 C 996.375 289.886719 1009.148438 280.363281 1023.511719 277.472656 Z M 1023.511719 277.472656 "/>
<path style=" stroke:none;fill-rule:nonzero;fill:rgb(100%,100%,100%);fill-opacity:1;" d="M 1863.960938 277.707031 C 1882.574219 272.992188 1903.730469 278.519531 1916.828125 292.792969 C 1934.859375 312.488281 1936.683594 345.265625 1920.386719 366.550781 C 1904.199219 388.339844 1870.414062 395.167969 1847.613281 379.992188 C 1825.640625 364.960938 1818.683594 333.898438 1827.574219 309.617188 C 1833.429688 293.84375 1847.449219 281.265625 1863.960938 277.707031 Z M 1863.960938 277.707031 "/>
<path style=" stroke:none;fill-rule:nonzero;fill:rgb(54.509804%,17.254902%,52.54902%);fill-opacity:1;" d="M 279.324219 0 L 287.257812 0 C 295.421875 40.363281 302.363281 81 310.183594 121.4375 C 311.035156 125.265625 311.339844 129.207031 310.546875 133.070312 C 268.359375 139.792969 229.675781 165.9375 208.300781 203.015625 C 206.875 206.84375 202.59375 208.199219 199.359375 205.507812 C 166.492188 186.535156 133.753906 167.347656 100.925781 148.339844 C 97.148438 146.082031 93.066406 144.21875 89.761719 141.292969 C 87.878906 139.703125 89.328125 137.027344 90.101562 135.257812 C 113.066406 95.347656 146.273438 61.433594 185.445312 37.273438 C 214.15625 19.207031 246.371094 7.515625 279.324219 0 Z M 279.324219 0 "/>
<path style=" stroke:none;fill-rule:nonzero;fill:rgb(89.019608%,11.372549%,17.254902%);fill-opacity:1;" d="M 335.460938 32.160156 C 411.109375 24.953125 489.378906 49.957031 546.308594 100.367188 C 548.53125 102.285156 548.261719 105.574219 546.164062 107.433594 C 518.847656 139.089844 491.421875 170.671875 464.066406 202.292969 C 461.878906 205.039062 457.796875 204.605469 455.683594 202.019531 C 425.726562 176.003906 384.570312 163.265625 345.179688 168.089844 C 342.164062 168.25 339.109375 169.371094 336.128906 168.648438 C 333.671875 166.679688 333.511719 163.460938 333.023438 160.625 C 327.277344 120.296875 320.972656 80.058594 315.332031 39.730469 C 314.375 36.714844 316.707031 34.292969 319.632812 34.167969 C 324.835938 33.066406 330.167969 32.777344 335.460938 32.160156 Z M 335.460938 32.160156 "/>
<path style=" stroke:none;fill-rule:nonzero;fill:rgb(1.176471%,1.568627%,2.352941%);fill-opacity:1;" d="M 1415.832031 117.191406 C 1431.28125 113.035156 1448.984375 118.347656 1459.140625 130.832031 C 1470.757812 144.183594 1471.714844 164.910156 1462.5 179.816406 C 1452.816406 196.21875 1431.351562 204.1875 1413.265625 198.207031 C 1394.730469 192.644531 1382.605469 172.730469 1385.0625 153.722656 C 1386.507812 136.722656 1399.265625 121.398438 1415.832031 117.191406 Z M 1415.832031 117.191406 "/>
<path style=" stroke:none;fill-rule:nonzero;fill:rgb(1.176471%,1.568627%,2.352941%);fill-opacity:1;" d="M 735.804688 159.453125 C 760.574219 159.363281 785.34375 159.613281 810.132812 159.324219 C 810.695312 232.5 810.042969 305.714844 810.457031 378.90625 L 810.964844 379.773438 C 840.667969 379.992188 870.390625 379.882812 900.109375 379.828125 C 900.34375 401.671875 900.164062 423.535156 900.21875 445.378906 C 845.382812 445.289062 790.546875 445.5625 735.714844 445.234375 C 735.910156 349.980469 735.730469 254.707031 735.804688 159.453125 Z M 735.804688 159.453125 "/>
<path style=" stroke:none;fill-rule:nonzero;fill:rgb(1.176471%,1.568627%,2.352941%);fill-opacity:1;" d="M 1196.816406 159.6875 C 1221.695312 159.125 1246.609375 159.597656 1271.527344 159.453125 C 1271.507812 232.917969 1271.507812 306.398438 1271.527344 379.867188 C 1301.535156 380.101562 1331.582031 379.449219 1361.59375 380.191406 C 1361.175781 401.890625 1361.449219 423.589844 1361.449219 445.308594 C 1306.613281 445.453125 1251.777344 445.398438 1196.941406 445.328125 C 1196.925781 350.125 1197.160156 254.90625 1196.816406 159.6875 Z M 1196.816406 159.6875 "/>
<path style=" stroke:none;fill-rule:nonzero;fill:rgb(1.176471%,1.568627%,2.352941%);fill-opacity:1;" d="M 950.464844 240.433594 C 967.917969 223.792969 991.1875 213.3125 1015.292969 211.832031 C 1034.425781 210.3125 1054.40625 214.164062 1070.359375 225.21875 C 1076.722656 229.070312 1081.886719 234.507812 1088.105469 238.519531 C 1088.25 230.929688 1087.816406 223.324219 1088.394531 215.734375 C 1111.195312 216.167969 1133.996094 215.769531 1156.796875 215.933594 C 1156.742188 291.65625 1156.832031 367.363281 1156.761719 443.066406 C 1157.589844 446.609375 1152.785156 444.984375 1150.980469 445.433594 C 1129.550781 445.253906 1108.140625 445.542969 1086.710938 445.289062 C 1086.765625 438.335938 1086.75 431.394531 1086.839844 424.441406 C 1083.550781 426.371094 1080.714844 428.921875 1077.75 431.269531 C 1036.9375 462.617188 972 455.75 938.992188 416.128906 C 919.496094 393.039062 911.800781 362.085938 911.925781 332.347656 C 911.566406 298.214844 925.421875 263.8125 950.464844 240.433594 M 1023.511719 277.472656 C 1009.148438 280.363281 996.375 289.886719 989.398438 302.730469 C 976.824219 325.949219 981.359375 357.839844 1000.910156 375.871094 C 1021.34375 394.390625 1055.707031 391.105469 1074.425781 371.734375 C 1096.792969 349.871094 1094.988281 309.164062 1071.355469 288.910156 C 1058.527344 277.582031 1040.042969 273.695312 1023.511719 277.472656 Z M 1023.511719 277.472656 "/>
<path style=" stroke:none;fill-rule:nonzero;fill:rgb(1.176471%,1.568627%,2.352941%);fill-opacity:1;" d="M 1528.121094 234.378906 C 1560.320312 205.5625 1614.324219 202.921875 1647.421875 231.597656 C 1651 234.378906 1653.691406 238.28125 1657.773438 240.433594 C 1657.648438 232.265625 1657.722656 224.117188 1657.667969 215.949219 C 1679.835938 215.988281 1702.023438 215.699219 1724.171875 216.09375 C 1723.992188 284.410156 1724.15625 352.726562 1724.101562 421.042969 C 1723.757812 446.753906 1714.960938 472.917969 1696.875 491.582031 C 1676.277344 513.226562 1646.375 523.796875 1617.015625 525.457031 C 1587.09375 527.210938 1555.65625 521.320312 1530.761719 503.921875 C 1511.335938 490.605469 1496.882812 468.90625 1494.859375 445.183594 C 1520.585938 445.597656 1546.335938 445.308594 1572.082031 445.34375 C 1576.8125 452.246094 1582.46875 459.3125 1590.796875 461.894531 C 1600.339844 464.914062 1610.671875 464.480469 1620.5 463.179688 C 1632.445312 461.152344 1644.894531 455.410156 1650.800781 444.261719 C 1656.4375 434.324219 1653.964844 422.597656 1654.632812 411.738281 C 1636.039062 427.078125 1612.714844 438.191406 1588.195312 437.757812 C 1563.460938 437.917969 1538.765625 427.820312 1521.652344 409.894531 C 1499.757812 387.742188 1489.78125 355.941406 1490.089844 325.246094 C 1490.179688 291.65625 1502.519531 256.929688 1528.121094 234.378906 M 1596.148438 272.105469 C 1578.875 274.851562 1565.285156 289.054688 1560.625 305.515625 C 1554.824219 325.460938 1557.121094 349.402344 1571.71875 365.105469 C 1589.640625 384.980469 1623.953125 383.191406 1642.128906 364.597656 C 1662.507812 344.847656 1663.015625 309.453125 1645.363281 287.824219 C 1633.617188 273.644531 1613.691406 269.324219 1596.148438 272.105469 Z M 1596.148438 272.105469 "/>
<path style=" stroke:none;fill-rule:nonzero;fill:rgb(1.176471%,1.568627%,2.352941%);fill-opacity:1;" d="M 1803.128906 231.109375 C 1826.492188 214.164062 1857.042969 207.65625 1885.246094 213.746094 C 1902.15625 217.304688 1916.46875 227.640625 1929.257812 238.789062 C 1929.132812 231.183594 1929.167969 223.59375 1929.132812 215.988281 C 1952.167969 215.898438 1975.222656 215.769531 1998.277344 216.058594 L 1998.277344 445.253906 C 1974.914062 445.488281 1951.554688 445.417969 1928.191406 445.289062 C 1928.265625 438.261719 1928.300781 431.25 1928.175781 424.242188 C 1920.550781 430.148438 1913.035156 436.363281 1904.21875 440.484375 C 1879.664062 453.222656 1850.105469 453.566406 1824.050781 445.378906 C 1800.925781 438.027344 1781.085938 421.476562 1769.398438 400.265625 C 1755.519531 375.4375 1751.636719 346.132812 1753.96875 318.089844 C 1757.398438 284.015625 1775.125 251.164062 1803.128906 231.109375 M 1863.960938 277.707031 C 1847.449219 281.265625 1833.429688 293.84375 1827.574219 309.617188 C 1818.683594 333.898438 1825.640625 364.960938 1847.613281 379.992188 C 1870.414062 395.167969 1904.199219 388.339844 1920.386719 366.550781 C 1936.683594 345.265625 1934.859375 312.488281 1916.828125 292.792969 C 1903.730469 278.519531 1882.574219 272.992188 1863.960938 277.707031 Z M 1863.960938 277.707031 "/>
<path style=" stroke:none;fill-rule:nonzero;fill:rgb(1.176471%,1.568627%,2.352941%);fill-opacity:1;" d="M 295.605469 216.476562 C 324.3125 212.175781 354.59375 220.683594 377.089844 238.96875 C 398.5 256.117188 412.933594 281.863281 415.898438 309.183594 C 418.898438 333.25 413.296875 358.308594 400.199219 378.726562 C 384.804688 403.191406 359.039062 420.953125 330.601562 426.210938 C 303.769531 431.433594 274.878906 426.066406 252.117188 410.796875 C 229.65625 396.308594 213.125 372.910156 206.929688 346.910156 C 200.242188 318.941406 205.050781 288.261719 220.875 264.15625 C 237.265625 238.390625 265.324219 220.449219 295.605469 216.476562 M 231.445312 265.242188 C 234.949219 263.378906 238.457031 261.535156 242.105469 259.984375 C 237.878906 270.425781 234.265625 281.808594 236.035156 293.175781 C 245.070312 298.199219 255.222656 301.105469 263.894531 306.832031 C 253.523438 305.570312 243.496094 302.496094 233.144531 301.105469 C 225.988281 310.140625 220.875 320.710938 218.796875 332.09375 C 216.957031 328.878906 215.238281 325.589844 213.234375 322.480469 C 213.324219 342.664062 219.992188 362.9375 232.222656 379.015625 C 231.464844 375.476562 230.722656 371.953125 230.089844 368.410156 C 239.558594 374.515625 248.683594 381.996094 260.191406 384.019531 C 267.453125 376.414062 273.761719 367.777344 281.980469 361.164062 C 277.300781 370.558594 271.753906 379.46875 266.714844 388.664062 C 272.351562 397.914062 280.425781 405.484375 289.730469 410.980469 L 290.707031 412.625 C 287.128906 413.164062 283.570312 413.796875 280.03125 414.574219 C 290.183594 416.886719 300.445312 418.929688 310.90625 419.128906 C 320.699219 418.675781 330.382812 416.996094 339.90625 414.71875 C 336.382812 413.726562 332.789062 413.003906 329.191406 412.296875 C 338.929688 406.40625 347.53125 398.800781 353.890625 389.316406 C 349.96875 379.558594 342.578125 371.375 339.617188 361.273438 C 346.84375 368.71875 353.582031 376.648438 360.828125 384.074219 C 371.976562 381.292969 381.859375 375.148438 390.421875 367.632812 C 389.972656 371.554688 389.429688 375.476562 388.832031 379.378906 C 400.359375 362.394531 407.695312 342.335938 407.425781 321.648438 C 405.871094 325.246094 404.007812 328.714844 401.824219 331.964844 C 399.636719 320.601562 394.777344 309.6875 387.042969 301.015625 C 377.144531 303.058594 367.207031 304.9375 357.324219 307.085938 C 365.21875 300.328125 376.421875 298.738281 384.820312 292.757812 C 386.160156 281.574219 383.140625 270.300781 378.390625 260.234375 C 381.929688 261.355469 385.21875 263.089844 388.417969 264.96875 C 377.160156 247.96875 359.238281 235.429688 339.796875 229.574219 C 342.867188 232.25 345.832031 235.03125 348.597656 238.011719 C 337.015625 236.511719 325.164062 237.867188 314.339844 242.238281 C 312.660156 252.429688 313.058594 263.054688 309.949219 272.9375 C 308.757812 262.746094 307.527344 252.558594 306.460938 242.367188 C 295.710938 237.957031 283.878906 236.402344 272.351562 238.085938 C 274.84375 235.175781 277.574219 232.464844 280.121094 229.59375 C 260.625 235.863281 243.460938 248.691406 231.445312 265.242188 Z M 231.445312 265.242188 "/>
<path style=" stroke:none;fill-rule:nonzero;fill:rgb(1.176471%,1.568627%,2.352941%);fill-opacity:1;" d="M 1391.53125 216.113281 C 1414.585938 215.644531 1437.65625 216.09375 1460.710938 215.878906 C 1460.800781 292.398438 1460.820312 368.917969 1460.695312 445.417969 C 1437.765625 445.433594 1414.839844 445.199219 1391.910156 445.542969 C 1391.242188 369.078125 1391.984375 292.578125 1391.53125 216.113281 Z M 1391.53125 216.113281 "/>
<path style=" stroke:none;fill-rule:nonzero;fill:rgb(1.176471%,1.568627%,2.352941%);fill-opacity:1;" d="M 267.148438 307.503906 C 281.710938 297.148438 295.875 286.234375 310.65625 276.191406 C 324.835938 286.976562 339.617188 296.988281 353.765625 307.828125 C 348.074219 324.792969 342.632812 341.867188 337.085938 358.871094 C 319.34375 358.925781 301.585938 358.78125 283.84375 358.960938 C 278.007812 341.902344 272.386719 324.757812 267.148438 307.503906 Z M 267.148438 307.503906 "/>
<path style=" stroke:none;fill-rule:nonzero;fill:rgb(7.45098%,36.470588%,65.098039%);fill-opacity:1;" d="M 42.1875 141.636719 C 42.839844 141.492188 44.15625 141.222656 44.808594 141.09375 C 82.242188 160.789062 119.390625 181.097656 156.738281 200.953125 C 159.5 202.183594 162.140625 205.597656 159.808594 208.453125 C 139.535156 245.367188 136.628906 291.203125 152.292969 330.339844 C 154.386719 333.628906 151.007812 336.738281 147.957031 337.605469 C 109.164062 352.492188 70.425781 367.542969 31.617188 382.394531 C 29.035156 384.019531 26.144531 381.835938 25.242188 379.359375 C -4.445312 303.996094 0.941406 215.84375 39.476562 144.601562 C 40.144531 143.859375 41.5 142.378906 42.1875 141.636719 Z M 42.1875 141.636719 "/>
<path style=" stroke:none;fill-rule:nonzero;fill:rgb(93.72549%,55.294118%,13.333333%);fill-opacity:1;" d="M 537.386719 149.117188 C 539.15625 147.996094 540.980469 148.085938 542.824219 149.386719 C 603.042969 205.09375 636.179688 288.351562 631.210938 370.199219 C 630.542969 371.011719 629.203125 372.621094 628.535156 373.433594 C 586.402344 371.84375 544.269531 369.351562 502.136719 367.542969 C 498.503906 367.652344 494.148438 365.753906 495.46875 361.328125 C 497.527344 319.734375 480.632812 277.5625 450.011719 249.269531 C 446.957031 247.261719 447.679688 242.800781 450.226562 240.6875 C 479.351562 210.242188 508.023438 179.308594 537.386719 149.117188 Z M 537.386719 149.117188 "/>
<path style=" stroke:none;fill-rule:nonzero;fill:rgb(12.941176%,60.392157%,81.960784%);fill-opacity:1;" d="M 107.304688 371.390625 C 111.855469 369.457031 116.265625 367.109375 121.070312 365.84375 C 124.757812 364.960938 126.167969 368.808594 127.359375 371.410156 C 143.945312 408.917969 177.476562 438.40625 216.722656 450.296875 C 220.929688 450.675781 221.183594 455.425781 219.882812 458.605469 C 207.289062 498.988281 194.714844 539.371094 182.101562 579.753906 C 180.894531 579.96875 178.488281 580.421875 177.28125 580.640625 C 105.027344 559.03125 42.785156 506.632812 8.816406 439.347656 C 5.746094 432.425781 0.453125 425.6875 1.953125 417.664062 C 3.234375 415.695312 5.855469 415.441406 7.789062 414.394531 C 41.011719 400.15625 74.132812 385.703125 107.304688 371.390625 Z M 107.304688 371.390625 "/>
<path style=" stroke:none;fill-rule:nonzero;fill:rgb(98.823529%,86.27451%,9.411765%);fill-opacity:1;" d="M 455.429688 382.9375 C 458.320312 382.015625 461.355469 381.761719 464.390625 382.140625 C 504.972656 385.429688 545.585938 388.449219 586.167969 391.683594 C 588.5 391.589844 590.359375 393.398438 590.613281 395.675781 C 585.894531 473.675781 545.984375 548.441406 484.679688 596.703125 C 480.527344 599.59375 476.839844 604.128906 471.4375 604.378906 C 469.035156 602.84375 467.625 600.242188 465.910156 598.074219 C 442.441406 565.769531 418.679688 533.699219 395.175781 501.429688 C 392.988281 498.953125 392.285156 495.03125 395.699219 493.28125 C 430.964844 467.964844 452.972656 426.15625 455.429688 382.9375 Z M 455.429688 382.9375 "/>
<path style=" stroke:none;fill-rule:nonzero;fill:rgb(15.686275%,63.529412%,29.411765%);fill-opacity:1;" d="M 350.277344 474.921875 C 352.789062 472.484375 356.691406 473.296875 358.296875 476.347656 C 381.625 510.96875 404.914062 545.605469 428.113281 580.3125 C 430.929688 583.132812 428.3125 587 425.472656 588.515625 C 391.617188 611.082031 352.824219 626.171875 312.605469 632.351562 C 304.148438 633.179688 295.75 636 287.222656 634.320312 C 272.820312 634.230469 258.347656 633.523438 244.003906 634.953125 C 226.496094 632.367188 208.699219 630.289062 191.894531 624.5625 C 191.445312 623.839844 190.558594 622.375 190.105469 621.636719 C 200.820312 580.890625 212.527344 540.363281 223.496094 499.675781 C 223.929688 497.039062 225.683594 495.066406 227.652344 493.441406 C 268.574219 506.160156 314.863281 498.933594 350.277344 474.921875 Z M 350.277344 474.921875 "/>
</g>
</svg>
